<?xml version="1.0" encoding="UTF-8"?>
<svg id="Layer_1" data-name="Layer 1" xmlns="http://www.w3.org/2000/svg" version="1.1" viewBox="0 0 370.5 365.1">
  <defs>
    <style>
      .cls-1 {
        fill: #fff;
        stroke-width: 0px;
      }
    </style>
  </defs>
  <g>
    <path class="cls-1" d="M92.3,185.1l19.5,75.7-10,2.6-19.5-75.7,10-2.6Z"/>
    <path class="cls-1" d="M150.3,219.2l-20.2,5.2-2.1-8.2,20.2-5.2c3.9-1,6.9-2.5,9-4.3,2.1-1.9,3.4-4.1,4-6.6.6-2.5.5-5.2-.3-8-.7-2.6-1.9-4.9-3.6-6.9-1.7-2-4-3.4-6.8-4.2-2.8-.8-6.1-.7-10.1.3l-17.9,4.6,17.4,67.5-10,2.6-19.5-75.7,27.9-7.2c5.7-1.5,10.8-1.7,15.3-.8,4.5,1,8.2,2.9,11.1,5.9,2.9,3,5,6.7,6.1,11.1,1.3,4.9,1.3,9.3.1,13.2-1.2,4-3.5,7.3-7,10.1-3.5,2.8-8.1,4.9-13.8,6.4Z"/>
    <path class="cls-1" d="M230,149.6l2.1,8.2-58.5,15.1-2.1-8.2,58.5-15.1ZM205.7,155.8l19.5,75.7-9.9,2.5-19.5-75.7,9.9-2.5Z"/>
    <path class="cls-1" d="M245.7,145.5l38.7,58.5,5.7,10.8-7.8,2-47.5-68.5,10.9-2.8ZM283.1,204.4l5.8-70,10.9-2.8-8.5,83-7.8,2-.4-12.2Z"/>
  </g>
  <g>
    <path class="cls-1" d="M118.8,300.2c-.2-.8-.5-1.5-.9-2-.4-.5-1-1-1.7-1.3-.7-.3-1.7-.6-2.8-.8-1.2-.2-2.6-.3-4.3-.3-1.8,0-3.4-.2-4.9-.5-1.5-.3-2.8-.7-4-1.2s-2.1-1.3-2.9-2.1c-.8-.9-1.3-2-1.7-3.3-.3-1.3-.4-2.6-.1-3.8.3-1.3.8-2.4,1.6-3.5.8-1.1,1.8-2,3.1-2.9s2.8-1.5,4.5-1.9c2.5-.7,4.8-.7,6.8-.2,2,.5,3.7,1.4,5,2.7,1.3,1.3,2.2,2.9,2.7,4.6l-4.4,1.1c-.3-1.3-.9-2.3-1.7-3.2-.8-.8-1.8-1.4-3.1-1.7s-2.7-.2-4.4.2c-1.6.4-2.8,1-3.8,1.7-.9.7-1.5,1.6-1.8,2.5-.3.9-.3,1.9,0,3,.2.7.5,1.3,1,1.8.4.5,1.1.9,1.8,1.2.8.3,1.7.6,2.8.7,1.1.2,2.4.3,3.9.3,2.1,0,3.9.2,5.4.5,1.6.3,2.9.8,4,1.3,1.1.6,2,1.4,2.7,2.3.7.9,1.2,2.1,1.6,3.4.4,1.4.4,2.7.1,3.9-.3,1.3-.8,2.4-1.7,3.5-.8,1.1-1.9,2-3.2,2.8-1.3.8-2.9,1.4-4.7,1.9-1.6.4-3.1.6-4.8.5-1.6,0-3.2-.3-4.6-.9-1.5-.5-2.7-1.4-3.8-2.5-1.1-1.1-1.8-2.5-2.2-4.2l4.4-1.1c.3,1.2.8,2.1,1.4,2.8.7.7,1.5,1.2,2.4,1.6.9.3,1.9.5,3,.5,1.1,0,2.1-.1,3.2-.4,1.6-.4,2.8-1,3.8-1.7,1-.7,1.6-1.5,2-2.5.4-.9.4-2,.1-3.1Z"/>
    <path class="cls-1" d="M122.5,272.4l3.8-1,5.9,20.4,3.4,13.2-4.4,1.1-8.7-33.7ZM123.9,272l4.3-1.1,18.1,24.7,3.9-30.3,4.4-1.1-5,37.3-3.4.9-22.4-30.2ZM152.2,264.7l3.8-1,8.7,33.7-4.4,1.1-3.4-13.2-4.7-20.7Z"/>
    <path class="cls-1" d="M177.6,261.4l-3.2,33.6-4.6,1.2,4.2-37,2.9-.8.7,3ZM191.1,277.4l.9,3.7-19,4.9-.9-3.7,19-4.9ZM194.8,289.7l-19.1-27.9-.8-3,2.9-.8,21.6,30.4-4.6,1.2Z"/>
    <path class="cls-1" d="M195.3,253.6l11.2-2.9c2.5-.7,4.8-.8,6.7-.5s3.6,1.1,4.9,2.4,2.2,3,2.8,5.2c.4,1.5.4,3,.2,4.5-.3,1.4-.9,2.7-1.9,3.9-.9,1.2-2.2,2.2-3.7,3.1l-1.1.8-10.5,2.7-1-3.6,7.9-2c1.6-.4,2.9-1,3.8-1.9.9-.8,1.5-1.8,1.8-2.9.3-1.1.3-2.2,0-3.4-.3-1.3-.9-2.4-1.6-3.2s-1.8-1.4-3-1.6c-1.2-.3-2.7-.2-4.4.3l-6.7,1.7,7.7,30.1-4.5,1.2-8.7-33.7ZM223.7,282.3l-12.1-13.2,4.7-1.2,12.2,12.9v.3c0,0-4.7,1.2-4.7,1.2Z"/>
    <path class="cls-1" d="M246,240.6l.9,3.7-26.1,6.7-.9-3.7,26.1-6.7ZM235.1,243.3l8.7,33.7-4.4,1.1-8.7-33.7,4.4-1.1Z"/>
    <path class="cls-1" d="M255.4,238.1l8.7,33.7-4.5,1.2-8.7-33.7,4.5-1.2ZM272.2,233.8l.9,3.7-17.6,4.5-.9-3.7,17.6-4.5ZM273.8,248.9l.9,3.6-15.5,4-.9-3.6,15.5-4ZM280.1,263.8l.9,3.6-17.9,4.6-.9-3.6,17.9-4.6Z"/>
    <path class="cls-1" d="M277.9,232.3l11.2-2.9c2.5-.7,4.8-.8,6.7-.5,2,.3,3.6,1.1,4.9,2.4s2.2,3,2.8,5.2c.4,1.5.4,3,.2,4.5-.3,1.4-.9,2.7-1.9,3.9-.9,1.2-2.2,2.2-3.7,3.1l-1.1.8-10.5,2.7-1-3.6,7.9-2c1.6-.4,2.9-1,3.8-1.9.9-.8,1.5-1.8,1.8-2.9.3-1.1.3-2.2,0-3.4-.3-1.3-.9-2.4-1.6-3.2s-1.8-1.4-3-1.6c-1.2-.3-2.7-.2-4.4.3l-6.7,1.7,7.7,30.1-4.5,1.2-8.7-33.7ZM306.3,261l-12.1-13.2,4.7-1.2,12.2,12.9v.3c0,0-4.7,1.2-4.7,1.2Z"/>
    <path class="cls-1" d="M331.6,245.4c-.2-.8-.5-1.5-.9-2-.4-.5-1-1-1.7-1.3-.7-.3-1.7-.6-2.8-.8-1.2-.2-2.6-.3-4.3-.3-1.8,0-3.4-.2-4.9-.5-1.5-.3-2.8-.7-4-1.2s-2.1-1.3-2.9-2.1c-.8-.9-1.3-2-1.7-3.3-.3-1.3-.4-2.6-.1-3.8.3-1.3.8-2.4,1.6-3.5.8-1.1,1.8-2,3.1-2.9,1.3-.8,2.8-1.5,4.5-1.9,2.5-.7,4.8-.7,6.8-.2,2,.5,3.7,1.4,5,2.7,1.3,1.3,2.2,2.9,2.7,4.6l-4.4,1.1c-.3-1.3-.9-2.3-1.7-3.2-.8-.8-1.8-1.4-3.1-1.7-1.2-.3-2.7-.2-4.4.2-1.6.4-2.8,1-3.8,1.7-.9.7-1.5,1.6-1.8,2.5-.3.9-.3,1.9,0,3,.2.7.5,1.3,1,1.8.5.5,1.1.9,1.8,1.2.8.3,1.7.6,2.8.7,1.1.2,2.4.3,3.9.3,2.1,0,3.9.2,5.4.5,1.6.3,2.9.8,4,1.3,1.1.6,2,1.4,2.7,2.3.7.9,1.2,2.1,1.6,3.4.4,1.4.4,2.7.1,3.9-.3,1.3-.8,2.4-1.7,3.5-.8,1.1-1.9,2-3.2,2.8-1.3.8-2.9,1.4-4.7,1.9-1.6.4-3.1.6-4.8.5s-3.2-.3-4.6-.9-2.7-1.4-3.8-2.5c-1.1-1.1-1.8-2.5-2.2-4.2l4.4-1.1c.3,1.2.8,2.1,1.4,2.8.7.7,1.5,1.2,2.4,1.6s1.9.5,3,.5c1.1,0,2.1-.1,3.2-.4,1.6-.4,2.8-1,3.8-1.7,1-.7,1.6-1.5,2-2.5.4-.9.4-2,.1-3.1Z"/>
  </g>
  <g>
    <path class="cls-1" d="M281.9,302.7l-9,2.3-.9-3.6,9-2.3c1.7-.4,3.1-1.1,4-1.9.9-.8,1.5-1.8,1.8-2.9.2-1.1.2-2.3-.1-3.6-.3-1.2-.8-2.2-1.6-3.1-.8-.9-1.8-1.5-3-1.9-1.2-.3-2.7-.3-4.5.2l-8,2.1,7.7,30.1-4.5,1.2-8.7-33.7,12.4-3.2c2.5-.7,4.8-.8,6.8-.3s3.6,1.3,4.9,2.6,2.2,3,2.7,5c.6,2.2.6,4.1,0,5.9-.5,1.8-1.6,3.3-3.1,4.5-1.6,1.2-3.6,2.2-6.2,2.9Z"/>
    <path class="cls-1" d="M294.1,277.7l11.2-2.9c2.5-.7,4.8-.8,6.7-.5,2,.3,3.6,1.1,4.9,2.4,1.3,1.3,2.2,3,2.8,5.2.4,1.5.4,3,.2,4.5-.3,1.4-.9,2.7-1.9,3.9-.9,1.2-2.2,2.2-3.7,3.1l-1.1.8-10.5,2.7-1-3.6,7.9-2c1.6-.4,2.9-1,3.8-1.9.9-.8,1.5-1.8,1.8-2.9.3-1.1.3-2.2,0-3.4-.3-1.3-.9-2.4-1.6-3.2s-1.8-1.4-3-1.6c-1.2-.3-2.7-.2-4.4.3l-6.7,1.7,7.7,30.1-4.5,1.2-8.7-33.7ZM322.5,306.4l-12.1-13.2,4.7-1.2,12.2,12.9v.3c0,0-4.7,1.2-4.7,1.2Z"/>
    <path class="cls-1" d="M353.4,279.3l.5,2.1c.7,2.5.9,4.9.8,7.1-.1,2.2-.6,4.1-1.4,5.8s-2,3.2-3.4,4.3c-1.5,1.2-3.2,2-5.3,2.5-2,.5-3.9.6-5.8.3-1.9-.3-3.6-1-5.1-2.1-1.6-1.1-3-2.6-4.1-4.4-1.2-1.8-2.1-4-2.8-6.6l-.5-2.1c-.7-2.5-.9-4.9-.8-7.1s.6-4.1,1.5-5.8c.8-1.7,2-3.2,3.5-4.3,1.5-1.2,3.2-2,5.2-2.5,2.1-.5,4-.6,5.9-.3,1.9.3,3.6,1,5.1,2.1,1.6,1.1,2.9,2.6,4.1,4.4,1.2,1.8,2.1,4,2.7,6.6ZM349.5,282.6l-.6-2.2c-.5-2-1.2-3.7-2-5.2-.8-1.4-1.7-2.6-2.8-3.4-1.1-.8-2.2-1.4-3.5-1.6-1.3-.2-2.6-.2-4.1.2-1.4.4-2.6,1-3.6,1.8-1,.8-1.7,1.9-2.3,3.1-.5,1.3-.8,2.7-.8,4.4,0,1.7.2,3.5.7,5.5l.6,2.2c.5,2,1.2,3.8,2,5.2.8,1.4,1.8,2.6,2.9,3.4,1.1.8,2.3,1.4,3.5,1.7,1.3.3,2.6.2,4-.2,1.5-.4,2.7-1,3.7-1.8s1.7-1.9,2.2-3.1c.5-1.3.8-2.7.8-4.4,0-1.7-.3-3.5-.8-5.5Z"/>
  </g>
  <path class="cls-1" d="M55.5,159l269.2-74.6-157.2,30.6c0-.5-.2-1-.3-1.5-.5-2-1.5-3.8-2.8-5.2l51.7-89.6c.7,0,1.4,0,2.1-.2,3.4-.9,5.4-4.3,4.5-7.6s-4.3-5.4-7.6-4.5c-3.4.9-5.4,4.3-4.5,7.6.2.6.4,1.2.8,1.8l-51.4,89.1c-2.8-1.3-6.1-1.6-9.4-.8-2.8.7-5.2,2.2-6.9,4.1L62.2,45.2c.3-1,.3-2.1,0-3.2-.9-3.4-4.3-5.4-7.6-4.5s-5.4,4.3-4.5,7.6c.9,3.4,4.3,5.4,7.6,4.5.3,0,.5-.2.8-.3l82.2,63.8c-.8,2.2-.9,4.7-.3,7.1l-110.8,21.6c-16.9,3.3-27.1,20.7-21.7,37.1l59.6,179.8-32.9-165.7c-3-15.1,6.2-30,21-34.1Z"/>
</svg>