<?xml version="1.0" encoding="UTF-8"?>
<svg xmlns="http://www.w3.org/2000/svg" viewBox="0 0 512 512" width="512" height="512">
  <rect width="512" height="512" fill="#DC4822"/>
  <g transform="translate(100, 100) scale(0.84)">
    <path fill="#fff" d="M92.3,185.1l19.5,75.7-10,2.6-19.5-75.7,10-2.6Z"/>
    <path fill="#fff" d="M150.3,219.2l-20.2,5.2-2.1-8.2,20.2-5.2c3.9-1,6.9-2.5,9-4.3,2.1-1.9,3.4-4.1,4-6.6.6-2.5.5-5.2-.3-8-.7-2.6-1.9-4.9-3.6-6.9-1.7-2-4-3.4-6.8-4.2-2.8-.8-6.1-.7-10.1.3l-17.9,4.6,17.4,67.5-10,2.6-19.5-75.7,27.9-7.2c5.7-1.5,10.8-1.7,15.3-.8,4.5,1,8.2,2.9,11.1,5.9,2.9,3,5,6.7,6.1,11.1,1.3,4.9,1.3,9.3.1,13.2-1.2,4-3.5,7.3-7,10.1-3.5,2.8-8.1,4.9-13.8,6.4Z"/>
    <path fill="#fff" d="M230,149.6l2.1,8.2-58.5,15.1-2.1-8.2,58.5-15.1ZM205.7,155.8l19.5,75.7-9.9,2.5-19.5-75.7,9.9-2.5Z"/>
    <path fill="#fff" d="M245.7,145.5l38.7,58.5,5.7,10.8-7.8,2-47.5-68.5,10.9-2.8ZM283.1,204.4l5.8-70,10.9-2.8-8.5,83-7.8,2-.4-12.2Z"/>
  </g>
</svg>

